<?xml version="1.0" encoding="UTF-8"?>
<svg id="Laag_1" data-name="Laag 1" xmlns="http://www.w3.org/2000/svg" xmlns:xlink="http://www.w3.org/1999/xlink" viewBox="0 0 445.53 258.15">
  <defs>
    <style>
      .cls-1 {
        fill: none;
      }

      .cls-2 {
        font-family: NunitoSans-ExtraBold, 'Nunito Sans';
        font-size: 19px;
        font-weight: 700;
      }

      .cls-2, .cls-3 {
        fill: #002060;
      }

      .cls-4 {
        fill: #bd2b31;
      }

      .cls-5 {
        fill: #fecb00;
      }

      .cls-6 {
        clip-path: url(#clippath);
      }
    </style>
    <clipPath id="clippath">
      <rect class="cls-1" width="133.65" height="126.75"/>
    </clipPath>
  </defs>
  <g>
    <g class="cls-6">
      <path class="cls-4" d="M69.59,122.73l-2.05-10.1c-2.72.55-5.53.83-8.33.83-22.96,0-41.64-18.68-41.64-41.64,0-2.43.21-4.86.62-7.22l-10.15-1.77c-.52,2.95-.78,5.98-.78,9,0,11.8,3.96,22.68,10.61,31.41-1.65-.82-3.51-1.29-5.47-1.29C5.55,101.95,0,107.5,0,114.35s5.55,12.4,12.4,12.4,12.4-5.55,12.4-12.4c0-1.55-.3-3.02-.81-4.39,9.2,8.5,21.46,13.73,34.92,13.8h.59c3.4-.02,6.79-.37,10.09-1.04"/>
      <path class="cls-3" d="M59.21,19.88c-4.08,0-8.08.49-11.92,1.39,2.3-2.25,3.74-5.39,3.74-8.87C51.02,5.55,45.47,0,38.62,0s-12.4,5.55-12.4,12.4c0,6.41,4.86,11.68,11.1,12.33-12.69,5.89-22.78,16.77-27.41,30.67l9.77,3.25c5.67-17.03,21.55-28.48,39.52-28.48,8.97,0,17.51,2.81,24.7,8.12l6.12-8.29c-8.97-6.63-19.64-10.13-30.82-10.13"/>
      <path class="cls-5" d="M133.65,85.44c0-6.85-5.55-12.4-12.4-12.4-4.53,0-8.47,2.43-10.64,6.05.34-2.39.54-4.81.54-7.26,0-13.74-5.31-26.7-14.97-36.48l-7.33,7.24c7.74,7.84,12,18.23,12,29.24,0,17.56-11.1,33.32-27.62,39.23l3.47,9.7c15.77-5.63,27.55-18.47,32.23-34,.66,6.23,5.93,11.08,12.33,11.08,6.85,0,12.4-5.55,12.4-12.4"/>
    </g>
    <rect class="cls-1" width="133.65" height="126.75"/>
  </g>
  <text class="cls-2" transform="translate(23.06 76.66)"><tspan x="0" y="0">Uppsala</tspan></text>
</svg>